<svg xmlns="http://www.w3.org/2000/svg" width="512" height="512" viewBox="0 0 512 512">
  <defs>
    <filter id="bookShadow" x="-20%" y="-20%" width="140%" height="140%">
      <feDropShadow dx="3" dy="3" stdDeviation="5" flood-opacity="0.3"/>
    </filter>
  </defs>
  <!-- Book 1 -->
  <path d="M100 400 L400 350 L400 150 L100 200 Z" fill="#2980b9" stroke="#fff" stroke-width="2" filter="url(#bookShadow)"/>
  <path d="M100 400 L120 420 L420 370 L400 350 Z" fill="#3498db" />
  <path d="M420 370 L420 170 L400 150 L400 350 Z" fill="#1f618d" />
  
  <!-- Book 2 -->
  <path d="M100 370 L400 320 L400 120 L100 170 Z" fill="#e74c3c" stroke="#fff" stroke-width="2" filter="url(#bookShadow)"/>
  <path d="M100 370 L120 390 L420 340 L400 320 Z" fill="#c0392b" />
  <path d="M420 340 L420 140 L400 120 L400 320 Z" fill="#922b21" />

  <!-- Book 3 (Top) -->
  <path d="M100 340 L400 290 L400 90 L100 140 Z" fill="#2ecc71" stroke="#fff" stroke-width="2" filter="url(#bookShadow)"/>
  <text x="180" y="240" font-family="Arial" font-size="40" fill="white" transform="rotate(-9.5 180 240)">LIBRARY</text>
  <path d="M100 340 L120 360 L420 310 L400 290 Z" fill="#27ae60" />
  <path d="M420 310 L420 110 L400 90 L400 290 Z" fill="#1e8449" />
</svg>
