<svg xmlns="http://www.w3.org/2000/svg" width="512" height="512" viewBox="0 0 512 512">
  <defs>
    <linearGradient id="grad1" x1="0%" y1="0%" x2="100%" y2="100%">
      <stop offset="0%" style="stop-color:#3498db;stop-opacity:1" />
      <stop offset="100%" style="stop-color:#2980b9;stop-opacity:1" />
    </linearGradient>
    <filter id="shadow">
      <feDropShadow dx="2" dy="2" stdDeviation="3" flood-opacity="0.3"/>
    </filter>
  </defs>
  <rect x="100" y="50" width="312" height="412" rx="20" fill="#f5f6fa" filter="url(#shadow)" stroke="#dcdde1" stroke-width="4"/>
  <path d="M190 30 L322 30 A10 10 0 0 1 332 40 L332 70 A5 5 0 0 1 327 75 L185 75 A5 5 0 0 1 180 70 L180 40 A10 10 0 0 1 190 30 Z" fill="#7f8c8d"/>
  <rect x="156" y="150" width="200" height="20" rx="5" fill="#dfe4ea"/>
  <rect x="156" y="210" width="200" height="20" rx="5" fill="#dfe4ea"/>
  <rect x="156" y="270" width="120" height="20" rx="5" fill="#dfe4ea"/>
  <rect x="156" y="330" width="80" height="20" rx="5" fill="#3498db"/>
</svg>
